<svg xmlns="http://www.w3.org/2000/svg" width="100" height="100" viewBox="0 0 100 100">
    <g fill="none" fill-rule="evenodd">
        <path fill="#A0B7BE" d="M44.563 41.187a13.325 13.325 0 0 1 2.388-1.704l4.778 1.113.29.068.55-2.95a20.218 20.218 0 0 1 2.22-.139c.935-.006 1.835.09 2.704.263l.355.066c.97.225 1.894.566 2.768 1.022.47.246.923.532 1.364.846a25.96 25.96 0 0 0 4.067-1.847c-.505-.497-1.086-3.52-1.564-6.582a54.83 54.83 0 0 0 3.635-15.404c.99.986 2.588 1.875 5.098 2.1-1.428 11.358-3.823 19.721-7.4 25.97 2.116 3.488 3.445 8.383 3.746 14.699.764 16.057-.24 20.109-.24 20.109H39.606s-4.345-19.931.883-31.841c-4.715-2.53-10.543-6.241-16.718-11.69-1.89-1.67-3.421-3.345-4.657-4.964 2.276-1.433 3.76-3.03 4.717-4.41 5.243 6.238 13.84 11.644 20.732 15.275z"/>
        <path fill="#4A4A4A" d="M57.848 37.904v-4.8a4.78 4.78 0 0 0 3.968-4.706v-3.62l-3.445.752-1.788-2.174-.742 2.725-1.154.25-2.667 14.333-.29-.068a66.365 66.365 0 0 1-4.005-.824c-1.57-.366-3.397-.828-5.484-1.386 2.717-1.888 3.574-5.027 2.573-9.418-1.5-6.586 2.643-10.458 7.206-11.86 4.563-1.4 11.525-.02 11.525 7.294 0 0 .402 3.494.938 6.94.478 3.063 1.06 6.086 1.564 6.583 0 0-1.786 1.047-4.067 1.847-.441-.314-.894-.6-1.364-.846a11.652 11.652 0 0 0-2.768-1.022z"/>
        <path fill="#EC9B8E" d="M68.255 14.318c.899-15.192 6.122-6.479 5.212 1.641a160.1 160.1 0 0 1-.25 2.08c-2.51-.225-4.11-1.114-5.099-2.1.048-.536.104-1.066.137-1.621M53.579 32.287l1.108-5.957 1.154-.249.742-2.725 1.788 2.174 3.445-.752v3.62a4.78 4.78 0 0 1-3.968 4.705v4.801l-.355-.066a13.286 13.286 0 0 0-2.704-.263c-.774.007-1.514.055-2.22.14l.843-4.53.167-.898"/>
        <path fill="#FFFFFE" d="M54.575 29.02a3.2 3.2 0 1 0 6.294-1.17l-6.294 1.17"/>
        <path fill="#EC9B8E" d="M21.264 22.364c.709 1.209 1.593 2.39 2.567 3.549-.956 1.379-2.441 2.976-4.717 4.41-7.582-9.951-3.559-17.706 2.15-7.96"/>
        <g>
            <path fill="#EC9B8E" d="M28.254 45.273l-2.7 3.777c-1.072 3.077 1.261 6.081-1.931 6.733-1.717.35-3.028 1.904-2.85 3.646a3.347 3.347 0 0 0 4 2.952l.608 2.979-1.758 1.063-1.373 3.835c.208 3.987 2.79 5.981 7.75 5.981 4.958 0 6.758-3.115 5.398-9.345l-2.38-1.091 1.183-2.599c2.52-3.775 3.872-4.52 5.714-7.129l1.506-8.131-6.252-6.051-6.915 3.38z"/>
            <path fill="#FFFFFE" d="M31.14 52.638a3.673 3.673 0 1 0 7.224-1.342l-7.224 1.342"/>
            <path fill="#FFC300" fill-rule="nonzero" d="M28.056 64.634c-2.023 0-4.047-.416-6.07-1.247 0 0-13.353 2.472-13.353 16.186.218 2.332.554 3.497 1.007 3.497 9.904 0 15.895 0 23.273-1.85 3.683-.925 8.066-1.787 13.148-2.588 0-13.662-11.935-15.245-11.935-15.245-2.024.831-4.047 1.247-6.07 1.247z"/>
            <path fill="#4A4A4A" d="M33.903 63.516l-.626-5.952.495-.053a6.808 6.808 0 0 0 6.06-7.484l-.229-2.167-3.313-2.636-1.872 1.087c-2.5 1.455-4.18 4.113-4.107 7.005.006.186-.004.386-.014.584.145 1.395.224 2.71.245 3.951.038 2.185-.098 4.14-.368 5.883a28.383 28.383 0 0 1-.383 1.958c-2.315 9.917-9.115 11.938-9.115 11.938-.69.129-1.329.2-1.938.238-8.18.528-9.244-6.29-9.244-6.29 9.602-3.82 9.114-18.217 12.568-25.454.335-.81.77-1.536 1.32-2.164l.006-.008h.001c1.946-2.215 5.168-3.35 9.206-3.774 4.793-.504 9.704 3.738 8.837 13.008-.447 4.764-4.09 8.151-7.53 10.33"/>
        </g>
        <g>
            <path fill="#EC9B8E" d="M70.057 44.697l.244.725c1.045 3.097 3.597 5.398 6.714 6.054 1.676.353 2.956 1.917 2.782 3.67-.199 2.018-2.029 3.367-3.906 2.973l-.593 2.998-.168.853-.808 4.078h-7.225l1.095-5.537-1.138-.24c-3.204-.673-5.268-3.898-4.616-7.2l.886-4.476 4.666-3.424 2.067-.474z"/>
            <path fill="#4A4A4A" d="M76.231 51.48c-3.051-.642-5.55-2.895-6.575-5.928l-.238-.71c-.836 2.465-1.823 4.025-2.96 4.683-.502.291-1.902.684-4.198 1.177l.565-2.043c.934-4.718 5.4-7.765 9.977-6.8l3.099.65c4.885 1.03 8.038 5.947 7.04 10.985-.84 4.253-4.372 7.221-8.39 7.427l.58-2.936c1.838.386 3.63-.935 3.824-2.91.17-1.717-1.083-3.25-2.724-3.595z"/>
            <path fill="#EC9B8E" d="M50.293 62.827l1.387 2.819c1.686 4.563 1.677 7.392 3.366 10.7 1.688 3.308 6.887-2.204 8.576-5.108.062 3.144-4.598 6.243-4.502 10.972a36.146 36.146 0 0 1-2.32 2.318c-5.82 5.234-7.184-6.993-9.609-16.448-.511-1.993-1.33-6.31 0-7.003 1.358.024 2.392.608 3.102 1.75z"/>
            <path fill="#FFFFFE" d="M71.8 55.556c-.395 2.002-2.29 3.294-4.232 2.886-1.941-.409-3.193-2.363-2.796-4.364l7.027 1.478"/>
            <path fill="#FFC300" d="M78.25 64.71c6.009 0 11.34 4.04 13.222 10.023l2.36 7.495c.676 2.148-.533 4.443-2.625 4.989l-4.811 1.252c-5.101 1.565-8.107 2.348-9.018 2.348l-10.647 1.106c-5.782 0-7.288-1.106-8.287-1.106l1.145-8.6c-2.509 3.33-4.15 4.995-4.924 4.997-1.162.003-2.87-2.903-3.824-4.986-.954-2.082-3.604-9.444-3.196-10.826.302-1.023 1.988-1.941 5.058-2.757 1.308 4.905 1.962 7.281 1.962 7.128l1.222-2.393c2.17-4.67 3.816-8.67 8.742-8.67H78.25z"/>
            <path fill="#EC9B8E" d="M70.958 87.379c1.101-.324 2.215-.792 3.33-1.337.907 1.034 1.882 2.53 2.57 4.624-9.413 4.055-14.78-.68-5.9-3.287"/>
            <path stroke="#F09C00" d="M86.058 80.7l-10.185 4.982"/>
        </g>
    </g>
</svg>
