<svg xmlns="http://www.w3.org/2000/svg" width="100" height="100" viewBox="0 0 100 100">
    <g fill="none" fill-rule="evenodd">
        <path fill="#4A4A4A" d="M43.179 36.029c.535-1.012 1.972-1.814 2.97-1.814l3.815.802.592-2.86 12.222 6.327c1.36-5.521-1.931-12.37-7.453-13.73l-3.738-.92c-5.893-1.45-11.847 2.15-13.3 8.045-1.223 4.974 2.032 10.721 6.348 13.037l1.515-3.883c-2.09-.513-3.484-2.476-2.971-4.565"/>
        <path fill="#EC9B8E" d="M50.606 31.926l-.711 2.887-2.889-.711a3.567 3.567 0 1 0-1.705 6.928l-.775 3.148-.22.894-1.558 6.326h7.963l1.102-4.478 1.232.305a6.462 6.462 0 0 0 7.819-4.73l1.156-4.697-11.414-5.872"/>
        <path fill="#FFC300" d="M55.123 50.413H37.398a17.568 17.568 0 0 0-16.683 12.063l-2.978 9.022A4.677 4.677 0 0 0 21.05 77.5l6.07 1.508.504 5.933h7.738a3.14 3.14 0 0 1 3.137-3.108h8.919V61.331a2.284 2.284 0 0 1 2.283-2.283H70.25a17.568 17.568 0 0 0-15.127-8.635"/>
        <path fill="#FFFFFE" d="M53.002 40.667a2.987 2.987 0 1 0 5.803 1.427l-5.803-1.427"/>
        <path fill="#7C9198" d="M62.195 82.028H37.297a3.258 3.258 0 0 0-3.257 3.226l-.002.033h39.015a3.26 3.26 0 0 0 3.26-3.26H62.195"/>
        <path fill="#CADCE0" d="M73.943 58.376H48.925a2.37 2.37 0 0 0-2.37 2.37v21.282h29.758V60.746a2.37 2.37 0 0 0-2.37-2.37"/>
        <path fill="#FFF" d="M64.129 70.202a2.695 2.695 0 1 1-5.39-.002 2.695 2.695 0 0 1 5.39.002"/>
        <g fill-rule="nonzero">
            <path fill="#A0B7BE" d="M69.524 25.476l-7.81-9.762C69.524 15.714 73.43 4 73.43 4l9.701 9.688s-5.797 11.788-13.606 11.788zM7 52.762l9.762 7.81s3.905-11.715 9.762-13.667l-9.762-7.81C10.905 41.048 7 52.762 7 52.762zM68.571 40.095l9.762 9.762s5.857-9.762 11.715-11.714l-9.762-9.762C74.429 30.333 68.57 40.095 68.57 40.095z"/>
            <path fill="#CADCE0" d="M34.381 15.714v13.667c-12.148 0-17.571-3.905-17.571-3.905V11.81s7.159 3.904 17.571 3.904zM97 49.762l-3.905-11.714c-12.147 0-15.619 5.857-15.619 5.857l3.905 11.714S86.588 49.762 97 49.762z"/>
        </g>
    </g>
</svg>
