<svg xmlns="http://www.w3.org/2000/svg" width="100" height="100" viewBox="0 0 100 100">
    <g fill="none" fill-rule="evenodd">
        <path fill="#CADCE0" fill-rule="nonzero" d="M74.593 26.286H25.177A6.176 6.176 0 0 0 19 32.463v30.885a6.178 6.178 0 0 0 6.177 6.177h49.416a6.178 6.178 0 0 0 6.177-6.177V32.463a6.176 6.176 0 0 0-6.177-6.177z"/>
        <path fill="#7C9198" d="M49.885 51.81l-30.29-21.95A6.098 6.098 0 0 0 19 32.46v.78l30.885 22.385L80.77 33.241v-.778c0-.935-.222-1.812-.595-2.605L49.885 51.81z"/>
        <path fill="#FFC300" fill-rule="nonzero" d="M71.196 75.29H51.429v-9.883h19.767V57.17L86.02 70.348 71.196 83.526V75.29z"/>
    </g>
</svg>
