<svg xmlns="http://www.w3.org/2000/svg" width="100" height="100" viewBox="0 0 100 100">
    <g fill="none" fill-rule="nonzero">
        <path fill="#A0B7BE" d="M57.688 58.596H28.577L15.344 71.83v-39.89A7.94 7.94 0 0 1 23.284 24h37.05a7.94 7.94 0 0 1 7.94 7.94v18.717a7.94 7.94 0 0 1-7.94 7.94h-2.646z"/>
        <path fill="#FFC300" d="M70.921 71.829L84.154 85.06V42.334a7.94 7.94 0 0 0-7.94-7.94H39.163a7.94 7.94 0 0 0-7.94 7.94V63.89a7.94 7.94 0 0 0 7.94 7.94H70.92z"/>
        <path fill="#FFF" d="M70.551 60.65l-7.79-5.193v-5.193l7.79-5.194z"/>
        <path fill="#FFF" d="M61.463 60.65H47.18a2.596 2.596 0 0 1-2.597-2.596V47.667a2.596 2.596 0 0 1 2.597-2.597h14.282a2.596 2.596 0 0 1 2.596 2.597v10.387a2.596 2.596 0 0 1-2.596 2.597z"/>
    </g>
</svg>
