<svg xmlns="http://www.w3.org/2000/svg" width="20" height="20" viewBox="0 0 20 20">
    <defs>
        <filter id="a" width="103.2%" height="124%" x="-1.6%" filterUnits="objectBoundingBox">
            <feMorphology in="SourceAlpha" operator="dilate" radius="1" result="shadowSpreadOuter1"/>
            <feOffset dy="1" in="shadowSpreadOuter1" result="shadowOffsetOuter1"/>
            <feGaussianBlur in="shadowOffsetOuter1" result="shadowBlurOuter1" stdDeviation="1.5"/>
            <feComposite in="shadowBlurOuter1" in2="SourceAlpha" operator="out" result="shadowBlurOuter1"/>
            <feColorMatrix in="shadowBlurOuter1" result="shadowMatrixOuter1" values="0 0 0 0 0.701960784 0 0 0 0 0.847058824 0 0 0 0 0.882352941 0 0 0 0.5 0"/>
            <feMerge>
                <feMergeNode in="shadowMatrixOuter1"/>
                <feMergeNode in="SourceGraphic"/>
            </feMerge>
        </filter>
    </defs>
    <path fill="#4A4A4A" fill-rule="evenodd" d="M27 23.656l5.38-5.38a.944.944 0 0 1 1.34.005.953.953 0 0 1 .005 1.338L28.344 25l5.38 5.38a.944.944 0 0 1-.005 1.34.953.953 0 0 1-1.338.005L27 26.344l-5.38 5.38a.944.944 0 0 1-1.34-.005.953.953 0 0 1-.005-1.338L25.656 25l-5.38-5.38a.944.944 0 0 1 .005-1.34.953.953 0 0 1 1.338-.005L27 23.656z" filter="url(#a)" transform="translate(-17 -16)"/>
</svg>
