<svg xmlns="http://www.w3.org/2000/svg" width="100" height="100" viewBox="0 0 100 100">
    <g fill="none" fill-rule="nonzero">
        <path fill="#A0B7BE" d="M73 21.25H28.2a3.21 3.21 0 0 0-3.2 3.2v9.6c0 1.76 1.44 3.2 3.2 3.2H73c1.76 0 3.2-1.44 3.2-3.2v-9.6c0-1.76-1.44-3.2-3.2-3.2z"/>
        <path fill="#CADCE0" d="M73 40.45H28.2a3.21 3.21 0 0 0-3.2 3.2v9.6c0 1.76 1.44 3.2 3.2 3.2h40.16c2.08-2.08 7.84-1.44 7.84-3.2v-9.6c0-1.76-1.44-3.2-3.2-3.2zM67.24 59.65H28.2a3.21 3.21 0 0 0-3.2 3.2v9.6c0 1.76 1.44 3.2 3.2 3.2H73c1.76 0 3.2-1.44 3.2-3.2v-3.84c0-4.96-4-8.96-8.96-8.96z"/>
        <g fill="#FFC300">
            <path d="M81 83.65l-3.2 3.2h-3.2l-3.2-3.2V66.69H81v7.36l-1.6 1.6 1.6 1.6v1.6l-1.6 1.6 1.6 1.6z"/>
            <path d="M88.2 55.65c-.48-1.44-1.6-2.56-3.2-2.88-2.08-.48-5.28-1.12-8.8-1.12-3.52 0-6.72.64-8.8.96-1.6.32-2.72 1.44-3.2 2.88-.32 1.6-.8 3.52-.8 5.76 0 2.24.48 4.16.8 5.6.48 1.44 1.6 2.56 3.2 2.88 2.08.48 5.12.96 8.8.96 3.68 0 6.72-.64 8.8-.96 1.6-.32 2.72-1.44 3.2-2.88s.8-3.36.8-5.6c0-2.24-.48-4.16-.8-5.6zm-7.36 4h-9.12c-.96 0-1.76-.8-1.76-1.76v-2.24c0-.48 2.88-.96 6.4-.96 3.52 0 6.4.48 6.4.96v2.24c-.16.96-.96 1.76-1.92 1.76z"/>
        </g>
        <path fill="#F09C00" d="M74.6 69.41h1.6v17.44h-1.6z"/>
    </g>
</svg>
