<svg xmlns="http://www.w3.org/2000/svg" width="100" height="100" viewBox="0 0 100 100">
    <defs>
        <linearGradient id="a" x1="50%" x2="50%" y1="0%" y2="100%">
            <stop offset="0%" stop-color="#E7F0F2"/>
            <stop offset="100%" stop-color="#CADCE0"/>
        </linearGradient>
        <linearGradient id="b" x1="50%" x2="50%" y1="0%" y2="100%">
            <stop offset="0%" stop-color="#CEDCE0"/>
            <stop offset="100%" stop-color="#A0B7BE"/>
        </linearGradient>
        <linearGradient id="c" x1="50%" x2="50%" y1="0%" y2="100%">
            <stop offset="0%" stop-color="#B3C4C9"/>
            <stop offset="100%" stop-color="#7C9198"/>
        </linearGradient>
        <filter id="d" width="246.7%" height="246.7%" x="-73.3%" y="-36.7%" filterUnits="objectBoundingBox">
            <feOffset dy="11" in="SourceAlpha" result="shadowOffsetOuter1"/>
            <feGaussianBlur in="shadowOffsetOuter1" result="shadowBlurOuter1" stdDeviation="5.5"/>
            <feColorMatrix in="shadowBlurOuter1" result="shadowMatrixOuter1" values="0 0 0 0 0.62745098 0 0 0 0 0.717647059 0 0 0 0 0.745098039 0 0 0 0.25 0"/>
            <feMerge>
                <feMergeNode in="shadowMatrixOuter1"/>
                <feMergeNode in="SourceGraphic"/>
            </feMerge>
        </filter>
        <linearGradient id="e" x1="50%" x2="50%" y1="0%" y2="100%">
            <stop offset="0%" stop-color="#FFE300"/>
            <stop offset="100%" stop-color="#FFC300"/>
        </linearGradient>
    </defs>
    <g fill="none" fill-rule="nonzero">
        <path fill="url(#a)" d="M50.514 14.207v11.05h-9.471v-11.05h-3.157v11.05h-9.472v-11.05h-3.157v11.05h-11.05v3.157h11.05v9.472h-11.05v3.157h11.05v9.471h-11.05v3.158h39.465V14.207h-3.158zm0 14.207v9.472h-9.471v-9.472h9.471zm-22.1 0h9.472v9.472h-9.472v-9.472zm0 12.629h9.472v9.471h-9.472v-9.471zm12.629 9.471v-9.471h9.471v9.471h-9.471z" transform="translate(21 21)"/>
        <path fill="url(#b)" d="M52.093 1.579H1.58v50.514h12.628V14.207h37.886z" transform="translate(21 21)"/>
        <path fill="url(#c)" d="M0 0v53.672h15.786V15.786h37.886V0H0zm3.157 25.257v-9.471h9.472v9.471H3.157zm9.472 3.157v9.472H3.157v-9.472h9.472zm3.157-25.257h9.471v9.472h-9.471V3.157zm12.628 0h9.472v9.472h-9.472V3.157zm-15.785 0v9.472H3.157V3.157h9.472zM3.157 50.514v-9.471h9.472v9.471H3.157zM50.514 12.63h-9.471V3.157h9.471v9.472z" transform="translate(21 21)"/>
        <g filter="url(#d)" transform="translate(53.388 53.388)">
            <path fill="url(#e)" d="M14.806 29.612C6.642 29.612 0 22.97 0 14.806 0 6.642 6.642 0 14.806 0c8.164 0 14.806 6.642 14.806 14.806 0 8.164-6.642 14.806-14.806 14.806z"/>
            <path fill="#FFF" d="M6.663 12.585H22.95v4.442H6.663z"/>
            <path fill="#FFF" d="M17.027 6.663V22.95h-4.442V6.663z"/>
        </g>
    </g>
</svg>
