<svg xmlns="http://www.w3.org/2000/svg" width="100" height="100" viewBox="0 0 100 100">
    <g fill="none" fill-rule="evenodd">
        <path fill="#EC9B8E" d="M54.36 15.413l-.412.901c-1.77 3.855-5.375 6.478-9.485 6.902-2.21.228-4.074 2.073-4.087 4.358-.018 2.63 2.161 4.62 4.637 4.365l.358 3.95.1 1.123.491 5.372 9.322.98-.662-7.294 1.502-.155c4.224-.434 7.325-4.315 6.931-8.664l-.535-5.896-5.557-5.05-2.603-.892z"/>
        <path fill="#4A4A4A" d="M44.463 23.216c4.11-.424 7.715-3.047 9.485-6.902l.412-.901c.761 3.362 1.845 5.556 3.252 6.58.622.453 2.412 1.164 5.37 2.133l-.462-2.77c-.578-6.347-6.041-10.98-12.205-10.345l-4.174.43c-6.58.679-11.415 6.722-10.798 13.499.518 5.72 4.761 10.12 10.028 10.949l-.358-3.95c-2.476.255-4.655-1.734-4.637-4.365.013-2.285 1.877-4.13 4.087-4.358z"/>
        <path fill="#FFFFFE" d="M50.752 29.384c.238 2.637 2.508 4.561 5.069 4.297 2.56-.263 4.44-2.615 4.2-5.25l-9.269.953"/>
        <path fill="#FFC300" d="M43.799 40.054c-7.795 0-14.71 5.242-17.154 13.004l-3.062 9.726c-.877 2.786.692 5.764 3.406 6.472l6.242 1.625c6.619 2.03 10.518 3.046 11.7 3.046l13.814 1.435c7.501 0 9.455-1.435 10.752-1.435L68.01 62.77c3.284 4.321 5.414 6.482 6.39 6.482.991 0 3.298-1.927 3.882-3.128 1.45-2.984.55-7.924-2.698-14.821-.79 2.269-1.185 3.304-1.185 3.106l-1.586-3.106c-2.816-6.058-4.95-11.25-11.342-11.25H43.8z"/>
        <g fill-rule="nonzero" transform="rotate(-4 327.597 -624.077)">
            <circle cx="16.187" cy="3.666" r="2.93" fill="#A0B7BE"/>
            <circle cx="7.89" cy="4.265" r="2.93" fill="#A0B7BE"/>
            <path fill="#CADCE0" d="M13.277 4.399a.732.732 0 0 1-.732-.733.733.733 0 0 0-1.465 0 .732.732 0 1 1-1.465 0 2.2 2.2 0 0 1 2.198-2.197 2.2 2.2 0 0 1 2.197 2.197.732.732 0 0 1-.733.733zM4.488 3.666H.806a.732.732 0 1 1 0-1.465h3.682a.732.732 0 1 1 0 1.465z"/>
            <path fill="#CADCE0" d="M7.418 7.328a3.666 3.666 0 0 1-3.662-3.662A3.666 3.666 0 0 1 7.418.004a3.666 3.666 0 0 1 3.662 3.662 3.666 3.666 0 0 1-3.662 3.662zm0-5.86a2.2 2.2 0 0 0-2.197 2.198 2.2 2.2 0 0 0 2.197 2.197 2.2 2.2 0 0 0 2.197-2.197A2.2 2.2 0 0 0 7.418 1.47zM16.207 7.328a3.666 3.666 0 0 1-3.662-3.662A3.666 3.666 0 0 1 16.207.004a3.666 3.666 0 0 1 3.662 3.662 3.666 3.666 0 0 1-3.662 3.662zm0-5.86a2.2 2.2 0 0 0-2.197 2.198 2.2 2.2 0 0 0 2.197 2.197 2.2 2.2 0 0 0 2.197-2.197 2.2 2.2 0 0 0-2.197-2.197z"/>
        </g>
        <g fill-rule="nonzero">
            <path fill="#A0B7BE" d="M76.105 83.218c-11.258 0-26.105 6.73-26.105 6.73V52.932s14.684-6.73 29.368-6.73l-3.263 37.016z"/>
            <path fill="#CADCE0" d="M23.895 83.218c11.258 0 26.105 6.73 26.105 6.73V52.932s-14.684-6.73-29.368-6.73l3.263 37.016z"/>
        </g>
        <path fill="#EC9B8E" fill-rule="nonzero" d="M77.737 69.757h1.631c.98 0 1.632-.673 1.632-1.682v-6.73c0-1.01-.653-1.683-1.632-1.683h-1.631c-2.774 0-4.895 2.187-4.895 5.048 0 2.86 2.121 5.047 4.895 5.047zM22.263 59.662h-1.631c-.98 0-1.632.673-1.632 1.683v6.73c0 1.01.653 1.682 1.632 1.682h1.631c2.774 0 4.895-2.187 4.895-5.047s-2.121-5.048-4.895-5.048z"/>
    </g>
</svg>
