<svg xmlns="http://www.w3.org/2000/svg" xmlns:xlink="http://www.w3.org/1999/xlink" width="100" height="100" viewBox="0 0 100 100">
    <defs>
        <path id="a" d="M74.593 26.286H25.177A6.176 6.176 0 0 0 19 32.463v30.885a6.178 6.178 0 0 0 6.177 6.177h49.416a6.178 6.178 0 0 0 6.177-6.177V32.463a6.176 6.176 0 0 0-6.177-6.177z"/>
        <filter id="b" width="206.8%" height="252.6%" x="-53.4%" y="-50.9%" filterUnits="objectBoundingBox">
            <feOffset dy="11" in="SourceAlpha" result="shadowOffsetOuter1"/>
            <feGaussianBlur in="shadowOffsetOuter1" result="shadowBlurOuter1" stdDeviation="5.5"/>
            <feColorMatrix in="shadowBlurOuter1" result="shadowMatrixOuter1" values="0 0 0 0 0.62745098 0 0 0 0 0.717647059 0 0 0 0 0.745098039 0 0 0 0.25 0"/>
            <feOffset in="SourceAlpha" result="shadowOffsetOuter2"/>
            <feGaussianBlur in="shadowOffsetOuter2" result="shadowBlurOuter2" stdDeviation="5.5"/>
            <feColorMatrix in="shadowBlurOuter2" result="shadowMatrixOuter2" values="0 0 0 0 0.62745098 0 0 0 0 0.717647059 0 0 0 0 0.745098039 0 0 0 0.2 0"/>
            <feMerge>
                <feMergeNode in="shadowMatrixOuter1"/>
                <feMergeNode in="shadowMatrixOuter2"/>
            </feMerge>
        </filter>
        <linearGradient id="d" x1="50%" x2="50%" y1="100%" y2="0%">
            <stop offset="0%" stop-color="#CEDCE0"/>
            <stop offset="100%" stop-color="#A0B7BE"/>
        </linearGradient>
        <path id="c" d="M55.593 0H6.177A6.176 6.176 0 0 0 0 6.177v30.885a6.178 6.178 0 0 0 6.177 6.177h49.416a6.178 6.178 0 0 0 6.177-6.177V6.177A6.176 6.176 0 0 0 55.593 0z"/>
        <linearGradient id="e" x1="50%" x2="50%" y1="100%" y2="0%">
            <stop offset="0%" stop-color="#E7F0F2"/>
            <stop offset="100%" stop-color="#CADCE0"/>
        </linearGradient>
        <linearGradient id="g" x1="100%" x2="0%" y1="50%" y2="50%">
            <stop offset="0%" stop-color="#FFE300"/>
            <stop offset="100%" stop-color="#FFC300"/>
        </linearGradient>
    </defs>
    <g fill="none" fill-rule="evenodd">
        <use fill="#000" fill-rule="nonzero" filter="url(#b)" xlink:href="#a"/>
        <g transform="translate(19 26.286)">
            <mask id="f" fill="#fff">
                <use xlink:href="#c"/>
            </mask>
            <use fill="url(#d)" fill-rule="nonzero" xlink:href="#c"/>
            <path fill="url(#e)" d="M27.845-.188H0c-.372.792 0 5.43 0 6.363v.78l30.885 22.386L61.77 6.955v-.778c0-.934.372-7.094 0-7.888L27.845-.188z" mask="url(#f)"/>
        </g>
        <path fill="url(#g)" fill-rule="nonzero" d="M52.196 49.004H32.429v-9.883h19.767v-8.236L67.02 44.063 52.196 57.24v-8.236z" transform="translate(19 26.286)"/>
    </g>
</svg>
