<svg xmlns="http://www.w3.org/2000/svg" width="100" height="100" viewBox="0 0 100 100">
    <g fill="none" fill-rule="nonzero">
        <path fill="#CADCE0" d="M71.514 35.207v11.05h-9.471v-11.05h-3.157v11.05h-9.472v-11.05h-3.157v11.05h-11.05v3.157h11.05v9.472h-11.05v3.157h11.05v9.471h-11.05v3.158h39.465V35.207h-3.158zm0 14.207v9.472h-9.471v-9.472h9.471zm-22.1 0h9.472v9.472h-9.472v-9.472zm0 12.629h9.472v9.471h-9.472v-9.471zm12.629 9.471v-9.471h9.471v9.471h-9.471z"/>
        <path fill="#A0B7BE" d="M73.093 22.579H22.58v50.514h12.628V35.207h37.886z"/>
        <path fill="#7C9198" d="M21 21v53.672h15.786V36.786h37.886V21H21zm3.157 25.257v-9.471h9.472v9.471h-9.472zm9.472 3.157v9.472h-9.472v-9.472h9.472zm3.157-25.257h9.471v9.472h-9.471v-9.472zm12.628 0h9.472v9.472h-9.472v-9.472zm-15.785 0v9.472h-9.472v-9.472h9.472zm-9.472 47.357v-9.471h9.472v9.471h-9.472zM71.514 33.63h-9.471v-9.472h9.471v9.472z"/>
        <g>
            <path fill="#FFC300" d="M68.194 83c-8.164 0-14.806-6.642-14.806-14.806 0-8.164 6.642-14.806 14.806-14.806C76.358 53.388 83 60.03 83 68.194 83 76.358 76.358 83 68.194 83z"/>
            <path fill="#FFF" d="M60.051 65.973h16.287v4.442H60.051z"/>
            <path fill="#FFF" d="M70.415 60.051v16.287h-4.442V60.051z"/>
        </g>
    </g>
</svg>
