<svg xmlns="http://www.w3.org/2000/svg" width="100" height="100" viewBox="0 0 100 100">
    <defs>
        <filter id="a" width="162.9%" height="171%" x="-31.4%" y="-17.7%" filterUnits="objectBoundingBox">
            <feOffset dy="11" in="SourceAlpha" result="shadowOffsetOuter1"/>
            <feGaussianBlur in="shadowOffsetOuter1" result="shadowBlurOuter1" stdDeviation="5.5"/>
            <feColorMatrix in="shadowBlurOuter1" result="shadowMatrixOuter1" values="0 0 0 0 0.62745098 0 0 0 0 0.717647059 0 0 0 0 0.745098039 0 0 0 0.25 0"/>
            <feMerge>
                <feMergeNode in="shadowMatrixOuter1"/>
                <feMergeNode in="SourceGraphic"/>
            </feMerge>
        </filter>
        <linearGradient id="b" x1="50%" x2="50%" y1="0%" y2="100%">
            <stop offset="0%" stop-color="#CEDCE0"/>
            <stop offset="100%" stop-color="#A0B7BE"/>
        </linearGradient>
        <linearGradient id="c" x1="50%" x2="50%" y1="0%" y2="100%">
            <stop offset="0%" stop-color="#FFE300"/>
            <stop offset="100%" stop-color="#FFC300"/>
        </linearGradient>
    </defs>
    <g fill="none" fill-rule="nonzero" filter="url(#a)" transform="translate(15 24)">
        <path fill="url(#b)" d="M42.688 34.596H13.577L.344 47.83V7.939A7.94 7.94 0 0 1 8.284 0h37.05a7.94 7.94 0 0 1 7.94 7.94v18.717a7.94 7.94 0 0 1-7.94 7.94h-2.646z"/>
        <path fill="url(#c)" d="M55.921 47.829L69.154 61.06V18.334a7.94 7.94 0 0 0-7.94-7.94H24.163a7.94 7.94 0 0 0-7.94 7.94V39.89a7.94 7.94 0 0 0 7.94 7.94H55.92z"/>
        <path fill="#FFF" d="M55.551 36.65l-7.79-5.193v-5.193l7.79-5.194z"/>
        <path fill="#FFF" d="M46.463 36.65H32.18a2.596 2.596 0 0 1-2.597-2.596V23.667a2.596 2.596 0 0 1 2.597-2.597h14.282a2.596 2.596 0 0 1 2.596 2.597v10.387a2.596 2.596 0 0 1-2.596 2.597z"/>
    </g>
</svg>
