<svg xmlns="http://www.w3.org/2000/svg" width="100" height="100" viewBox="0 0 100 100">
    <g fill="none" fill-rule="nonzero" transform="translate(15.895 18)">
        <path fill="#A0B7BE" d="M3.248 38.977V6.497C3.248 2.922 6.171 0 9.744 0h45.474c3.573 0 6.496 2.923 6.496 6.496v32.481c0 3.573-2.923 6.496-6.496 6.496H9.744c-3.573 0-6.496-2.923-6.496-6.496z"/>
        <path fill="#CADCE0" d="M55.218 4.872H9.744c-.974 0-1.624.65-1.624 1.624v32.481c0 .975.65 1.624 1.624 1.624h45.474c.974 0 1.624-.65 1.624-1.624V6.497c0-.975-.65-1.625-1.624-1.625z"/>
        <path fill="#7C9198" d="M58.466 47.097H6.496C2.923 47.097 0 44.174 0 40.601h64.962c0 3.573-2.923 6.496-6.496 6.496z"/>
        <path fill="#FFC300" d="M35.729 58.466V19.489c0-3.573 2.923-6.497 6.496-6.497h19.489c3.573 0 6.496 2.924 6.496 6.497v38.977c0 3.573-2.923 6.496-6.496 6.496H42.225c-3.573 0-6.496-2.923-6.496-6.496z"/>
        <path fill="#FFF3E0" d="M61.714 17.865H42.225c-.974 0-1.624.65-1.624 1.624v35.729c0 .974.65 1.624 1.624 1.624h19.489c.974 0 1.624-.65 1.624-1.624v-35.73c0-.974-.65-1.623-1.624-1.623z"/>
        <circle cx="51.97" cy="60.902" r="2.436" fill="#F09C00"/>
    </g>
</svg>
