<svg width="59" height="59" xmlns="http://www.w3.org/2000/svg">

 <g>
  <title>background</title>
  <rect fill="#ffffff" id="canvas_background" height="61" width="61" y="-1" x="-1"/>
 </g>
 <g>
  <title>Layer 1</title>
  <path id="svg_1" fill-rule="evenodd" clip-rule="evenodd" fill="#3A589B" d="m25.725549,46.31245l6.744,0l0,-16.321l4.499,0l0.596,-5.624l-5.095,0l0.007,-2.816c0,-1.466 0.14,-2.253 2.244,-2.253l2.812,0l0,-5.625l-4.5,0c-5.405,0 -7.307,2.729 -7.307,7.317l0,3.377l-3.369,0l0,5.625l3.369,0l0,16.32zm-25.765,-46.319l60,0l0,60l-60,0l0,-60z"/>
  <path d="m9.881725,7.947526c0,0.138157 0.037103,0.701407 -0.138157,1.243412c-0.228906,0.707909 -0.482645,1.088477 -0.552628,1.519726c-0.02213,0.136373 -0.138157,0.276314 -0.138157,0.414471c0,0 0,0.138157 0,0.138157c0,0.138157 0.063484,0.283706 0,0.552628c-0.141954,0.601328 -0.208792,1.109396 -0.276314,1.657883c-0.0696,0.565368 -0.138157,0.967098 -0.138157,1.243412c0,0.414471 -0.052871,0.563144 0,0.690784c0.14954,0.361021 0.414471,0.414471 0.552628,0.552628l0.138157,0.138156" id="svg_2" fill-opacity="null" stroke-opacity="null" stroke-width="null" stroke="null" fill="none"/>
  <polyline stroke-linecap="round" id="svg_3" points="70.6707528206289,13.197487972893889 70.80890970221455,13.197487972893889 " fill-opacity="null" stroke-opacity="null" stroke-width="null" stroke="null" fill="none"/>
  <path stroke="null" d="m20.519805,8.085684c0.080644,0 1.063878,1.80556 2.90317,4.58139c3.355992,5.064812 6.003013,8.39867 7.257925,10.144508c1.330203,1.850583 2.088701,3.303701 2.661239,4.745012c0.842247,2.120275 1.344196,4.601502 1.774158,6.872087c0.531731,2.80802 0.806109,4.232034 0.88708,6.053981c0.03621,0.814799 0,1.308969 0,1.636211c0,0.654484 0.040018,1.130258 0.080644,1.799832c0.039412,0.649583 0.036128,1.054612 0.564505,2.290696c0.448344,1.048852 0.967723,1.963453 1.370941,2.781559l0.161287,0.490863l0.080644,0.163621l0.080644,0.163621" id="svg_4" fill-opacity="null" stroke-opacity="null" stroke-width="null" fill="none"/>
 </g>
</svg>