<svg xmlns="http://www.w3.org/2000/svg" width="100" height="100" viewBox="0 0 100 100">
    <defs>
        <filter id="a" width="184.6%" height="180%" x="-42.3%" y="-20%" filterUnits="objectBoundingBox">
            <feOffset dy="11" in="SourceAlpha" result="shadowOffsetOuter1"/>
            <feGaussianBlur in="shadowOffsetOuter1" result="shadowBlurOuter1" stdDeviation="5.5"/>
            <feColorMatrix in="shadowBlurOuter1" result="shadowMatrixOuter1" values="0 0 0 0 0.62745098 0 0 0 0 0.717647059 0 0 0 0 0.745098039 0 0 0 0.25 0"/>
            <feMerge>
                <feMergeNode in="shadowMatrixOuter1"/>
                <feMergeNode in="SourceGraphic"/>
            </feMerge>
        </filter>
        <linearGradient id="b" x1="100%" x2="0%" y1="50%" y2="50%">
            <stop offset="0%" stop-color="#CEDCE0"/>
            <stop offset="100%" stop-color="#A0B7BE"/>
        </linearGradient>
        <linearGradient id="c" x1="100%" x2="0%" y1="50%" y2="50%">
            <stop offset="0%" stop-color="#E7F0F2"/>
            <stop offset="100%" stop-color="#CADCE0"/>
        </linearGradient>
        <linearGradient id="d" x1="50%" x2="50%" y1="0%" y2="100%">
            <stop offset="0%" stop-color="#FFE300"/>
            <stop offset="100%" stop-color="#FFC300"/>
        </linearGradient>
        <linearGradient id="e" x1="50%" x2="50%" y1="0%" y2="100%">
            <stop offset="0%" stop-color="#F9CB00"/>
            <stop offset="100%" stop-color="#F09C00"/>
        </linearGradient>
    </defs>
    <g fill="none" fill-rule="nonzero">
        <g filter="url(#a)" transform="translate(25 21.25)">
            <path fill="url(#b)" d="M48 0H3.2A3.21 3.21 0 0 0 0 3.2v9.6C0 14.56 1.44 16 3.2 16H48c1.76 0 3.2-1.44 3.2-3.2V3.2C51.2 1.44 49.76 0 48 0z"/>
            <path fill="url(#c)" d="M48 19.2H3.2A3.21 3.21 0 0 0 0 22.4V32c0 1.76 1.44 3.2 3.2 3.2h40.16c2.08-2.08 7.84-1.44 7.84-3.2v-9.6c0-1.76-1.44-3.2-3.2-3.2zM42.24 38.4H3.2A3.21 3.21 0 0 0 0 41.6v9.6c0 1.76 1.44 3.2 3.2 3.2H48c1.76 0 3.2-1.44 3.2-3.2v-3.84c0-4.96-4-8.96-8.96-8.96z"/>
        </g>
        <path fill="url(#b)" d="M48 0H3.2A3.21 3.21 0 0 0 0 3.2v9.6C0 14.56 1.44 16 3.2 16H48c1.76 0 3.2-1.44 3.2-3.2V3.2C51.2 1.44 49.76 0 48 0z" transform="translate(25 21.25)"/>
        <path fill="url(#c)" d="M48 19.2H3.2A3.21 3.21 0 0 0 0 22.4V32c0 1.76 1.44 3.2 3.2 3.2h40.16c2.08-2.08 7.84-1.44 7.84-3.2v-9.6c0-1.76-1.44-3.2-3.2-3.2zM42.24 38.4H3.2A3.21 3.21 0 0 0 0 41.6v9.6c0 1.76 1.44 3.2 3.2 3.2H48c1.76 0 3.2-1.44 3.2-3.2v-3.84c0-4.96-4-8.96-8.96-8.96z" transform="translate(25 21.25)"/>
        <g fill="url(#d)" transform="translate(63.4 51.65)">
            <path d="M8 18.764a36.837 36.837 0 0 1-4-.684c-1.6-.32-2.72-1.44-3.2-2.88-.32-1.44-.8-3.36-.8-5.6 0-2.24.48-4.16.8-5.76C1.28 2.4 2.4 1.28 4 .96 6.08.64 9.28 0 12.8 0c3.52 0 6.72.64 8.8 1.12 1.6.32 2.72 1.44 3.2 2.88.32 1.44.8 3.36.8 5.6 0 2.24-.32 4.16-.8 5.6-.48 1.44-1.6 2.56-3.2 2.88-1.087.167-2.435.422-4 .627V22.4L16 24l1.6 1.6v1.6L16 28.8l1.6 1.6V32l-3.2 3.2h-3.2L8 32V18.764zM17.44 8c.96 0 1.76-.8 1.92-1.76V4c0-.48-2.88-.96-6.4-.96-3.52 0-6.4.48-6.4.96v2.24c0 .96.8 1.76 1.76 1.76h9.12z"/>
        </g>
        <path fill="url(#e)" d="M49.6 48.16h1.6V65.6h-1.6z" transform="translate(25 21.25)"/>
    </g>
</svg>
