<svg xmlns="http://www.w3.org/2000/svg" width="100" height="100" viewBox="0 0 100 100">
    <g fill="none" fill-rule="evenodd">
        <path stroke="#FFC300" stroke-width="3" d="M23.158 58.025V43.943a6.482 6.482 0 0 1 3.334-5.665l12.771-7.095m37.58 26.842V43.943a6.482 6.482 0 0 0-3.335-5.665l-12.771-7.095M30.316 71.535l16.427 8.96a6.478 6.478 0 0 0 6.437-.132l14.715-8.828"/>
        <path fill="#A0B7BE" fill-rule="nonzero" d="M37.474 25.814L50 18.656l12.526 7.158V40.13L50 47.288 37.474 40.13V25.814zm21.473 44.737l12.527 7.158L84 70.55V56.235l-12.526-7.158-12.527 7.158v14.316zm-42.947 0l12.526 7.158 12.527-7.158V56.235l-12.527-7.158L16 56.235v14.316z"/>
        <path fill="#7C9198" fill-rule="nonzero" d="M37.474 25.814L50 32.972v14.316L37.474 40.13V25.814zM16 70.551l12.526 7.158V63.393L16 56.235v14.316zm42.947 0l12.527 7.158V63.393l-12.527-7.158v14.316z"/>
        <path fill="#CADCE0" fill-rule="nonzero" d="M50 32.972l12.526-7.158V40.13L50 47.288V32.972zm21.474 44.737L84 70.55V56.235l-12.526 7.158V77.71zm-42.948 0l12.527-7.158V56.235l-12.527 7.158V77.71z"/>
    </g>
</svg>
