<?xml version="1.0" encoding="UTF-8"?>
<svg width="15px" height="15px" viewBox="0 0 15 15" version="1.1" xmlns="http://www.w3.org/2000/svg" xmlns:xlink="http://www.w3.org/1999/xlink">
    <!-- Generator: Sketch 50.2 (55047) - http://www.bohemiancoding.com/sketch -->
    <title>Ic_close</title>
    <desc>Created with Sketch.</desc>
    <defs></defs>
    <g id="Current-Version" stroke="none" stroke-width="1" fill="none" fill-rule="evenodd">
        <path d="M7.50340652,5.78749973 L12.8841932,0.40671309 C13.252237,0.0386692553 13.8488326,0.0385479386 14.2225054,0.412220661 C14.5935909,0.783306243 14.5884909,1.39005486 14.2280129,1.75053286 L8.84722629,7.1313195 L14.2280129,12.5121061 C14.5960568,12.88015 14.5961781,13.4767456 14.2225054,13.8504183 C13.8514198,14.2215039 13.2446712,14.2164039 12.8841932,13.8559259 L7.50340652,8.47513927 L2.12261988,13.8559259 C1.75457604,14.2239697 1.1579804,14.2240911 0.784307679,13.8504183 C0.413222097,13.4793328 0.418322112,12.8725841 0.778800108,12.5121061 L6.15958675,7.1313195 L0.778800108,1.75053286 C0.410756273,1.38248902 0.410634957,0.785893384 0.784307679,0.412220661 C1.15539326,0.0411350791 1.76214188,0.0462350942 2.12261988,0.40671309 L7.50340652,5.78749973 Z" id="Ic_close" fill="#FFFFFF"></path>
    </g>
</svg>