<svg xmlns="http://www.w3.org/2000/svg" xmlns:xlink="http://www.w3.org/1999/xlink" width="100" height="100" viewBox="0 0 100 100">
    <defs>
        <path id="b" d="M59.884 64.32c-.188-.48-.683-.935-1.63-1.356-.294-.131-.601-.209-1.243-.193-.529.013-1.07-.009-1.607-.015l-2.094-.025c0-.265-.017-.519.01-.772.007-.078-.098-.116-.37-.137-1.193-.09-2.38-.189-3.581-.271-.692-.047-1.412-.069-2.138-.103v-.254c0-.293.002-.292 1.093-.39 1.896-.168 3.771-.347 5.378-.67 1.796-.36 3.088-.815 3.85-1.366.69-.498.75-1.015.603-1.536-.113-.4-.467-.785-1.2-1.142-.574-.28-1.399-.505-2.449-.669-2.227-.347-4.68-.44-7.235-.404l-2.252.036-.04-.175-2.92.093v-.66l2.924-.112v-.856l-10.61.38v1.64l-6.64.076v-.654c.954-.015 1.888-.028 2.81-.041v-.924l-11.44.162v1.576h-7.628v.807h2.966v.624h-2.959v.795H15.3v2.553h2.916v.618h-2.907v.97h2.92v.619h-2.957v2.548h-3.788v1.606h2.946v.617h4.71v1.583c2.586.03 5.115.059 7.71.087v-.61c1.012.024 1.961.044 2.959.067v-1.014l4.59.09v1.631l10.616.38v-1.712l1.763.033c1.948.035 3.879.028 5.786-.103 3.517-.242 5.908-.778 6.87-1.7.594-.566.677-1.144.45-1.727zm-6.542-7.898l2.897-.109v.745l-2.897.091v-.727zm-.011 1.86l2.895-.07v.747l-2.895.049v-.726zm-30.334-1.984l2.985-.037v.632l-2.985.035v-.63zm1.813 2.452v.606h-2.957v-.606h2.957zm-5.61-2.424h2.942v.615H19.2v-.615zm-1.624 2.24v-.611h2.97v.612h-2.97zm.756 7.955h-2.966v-.613h2.966v.613zm3.06-1.6h-2.98v-.609h2.98v.609zm.002-.797h-2.978v-.608h2.978v.608zm.095-2.996h2.95v.618h-2.95v-.618zm4.504 6.967h-2.99v-.607h2.99v.607zm2.586-10.683c.253-.004 8.28-.107 9.247-.113 6.26-.04 6.092.65 6.137 1.153.083.923-1.416 1.754-8.944 1.903-.255.005-6.352.07-6.44.07v-3.013zm5.133 9.202l-2.953-.035v-.609h2.953v.644zm7.617.14l-2.952-.06v-.644l2.215.04.737.013v.65zm4.12-2.008c-.183.175-.695.834-6.738.832-1.48 0-9.92-.09-10.136-.09v-3.013c.188 0 5.552.03 6.442.042 9.419.128 9.645.595 10.602 1.463.275.249.092.514-.17.766zm10.788.865l-2.893-.087v-.728l2.893.071v.744z"/>
        <filter id="a" width="236%" height="507.8%" x="-68%" y="-135.9%" filterUnits="objectBoundingBox">
            <feOffset dy="11" in="SourceAlpha" result="shadowOffsetOuter1"/>
            <feGaussianBlur in="shadowOffsetOuter1" result="shadowBlurOuter1" stdDeviation="5.5"/>
            <feColorMatrix in="shadowBlurOuter1" result="shadowMatrixOuter1" values="0 0 0 0 0.62745098 0 0 0 0 0.717647059 0 0 0 0 0.745098039 0 0 0 0.25 0"/>
            <feOffset in="SourceAlpha" result="shadowOffsetOuter2"/>
            <feGaussianBlur in="shadowOffsetOuter2" result="shadowBlurOuter2" stdDeviation="5.5"/>
            <feColorMatrix in="shadowBlurOuter2" result="shadowMatrixOuter2" values="0 0 0 0 0.62745098 0 0 0 0 0.717647059 0 0 0 0 0.745098039 0 0 0 0.2 0"/>
            <feMerge>
                <feMergeNode in="shadowMatrixOuter1"/>
                <feMergeNode in="shadowMatrixOuter2"/>
            </feMerge>
        </filter>
        <linearGradient id="c" x1="50%" x2="50%" y1="0%" y2="100%">
            <stop offset="0%" stop-color="#FFE300"/>
            <stop offset="100%" stop-color="#FFC300"/>
        </linearGradient>
        <linearGradient id="d" x1="50%" x2="50%" y1="0%" y2="100%">
            <stop offset="0%" stop-color="#CEDCE0"/>
            <stop offset="100%" stop-color="#A0B7BE"/>
        </linearGradient>
    </defs>
    <g fill="none" fill-rule="nonzero">
        <use fill="#000" filter="url(#a)" transform="translate(16 12.5)" xlink:href="#b"/>
        <path fill="#CADCE0" d="M65.498 16.36c1.001-.213 1.918-.404 2.835-.609.073-.017.18-.13.182-.197.01-1.01.007-2.02.007-3.054-.96.22-1.863.418-2.761.643-.104.026-.25.178-.25.274-.019.954-.013 1.912-.013 2.944zM68.524 87.5c0-1.031.006-2.03-.013-3.03-.002-.086-.17-.218-.281-.244-.578-.14-1.159-.257-1.742-.377-.317-.065-.636-.125-.99-.195 0 1.013-.006 1.956.008 2.897.002.1.099.268.18.287.926.23 1.858.437 2.838.662zM64.743 16.514V13.37c-.68.139-1.33.27-1.98.407-1.035.22-1.035.221-1.035 1.307v2.002c1.05-.198 2.028-.384 3.015-.572zM61.727 82.916c0 1.023-.005 1.953.008 2.882.002.084.1.228.174.243.934.205 1.872.392 2.834.587v-3.144c-.994-.188-1.975-.371-3.015-.568zM57.98 17.72c.961-.157 1.848-.296 2.731-.457.107-.02.276-.156.278-.244.019-.942.013-1.883.013-2.877-.994.177-1.933.342-2.87.52-.063.011-.145.144-.145.223-.01.928-.008 1.856-.008 2.835zM57.237 82.162l-3-.433v2.981l3 .473v-3.021zM46.587 19.134c.973-.094 1.918-.182 2.865-.285.071-.008.186-.12.186-.188.013-.905.007-1.813.007-2.756l-3.058.334v2.895zM45.816 83.684v-1.891c0-.97 0-.976-.95-1.067-.689-.068-1.377-.115-2.09-.171v2.872c1.008.087 1.998.171 3.04.257zM45.792 16.312l-3.013.262v2.865l3.013-.23v-2.897zM50.404 84.187c1.011.133 1.997.266 3.008.4v-2.97c-1.009-.123-1.995-.24-3.008-.363v2.933zM53.412 15.41c-1.022.137-2.018.27-2.998.403v2.933l2.998-.364V15.41zM38.96 16.805v2.863c1.032-.06 2.026-.118 3.016-.178v-2.856c-1.012.059-1.995.113-3.017.171zM41.982 80.504c-1.04-.054-2.029-.107-3.064-.159 0 .91-.01 1.76.013 2.61.004.09.184.24.295.253.444.053.892.064 1.342.086.47.025.94.047 1.414.07v-2.86zM31.31 82.989h3.016v-2.802H31.31v2.802zM35.134 83.084h3.014V80.28h-3.014v2.805zM34.326 19.809v-2.794h-3.005v2.794h3.005zM27.47 19.807h3.013v-2.801h-3.014v2.8zM68.511 20.011c-1.031.193-2.017.38-2.977.563v2.788l2.977-.505v-2.846zM65.498 76.634c0 .552-.006 1.02.002 1.491.006.424-.12.96.086 1.236.186.247.74.217 1.137.294.586.114 1.175.218 1.771.324v-2.84c-.993-.169-1.959-.332-2.996-.505zM72.244 77.834l-2.945-.55v2.855l2.945.61v-2.915zM69.306 22.719l2.935-.559v-2.914l-2.935.613v2.86zM72.239 15.592c-.934.214-1.853.42-2.764.641-.075.017-.182.124-.182.188-.013.894-.007 1.788-.007 2.715 1.018-.218 1.978-.422 2.955-.632-.002-.96-.002-1.902-.002-2.912zM61.744 23.94l2.99-.453V20.71c-1.017.168-1.996.332-2.99.495v2.735zM64.73 79.286v-2.777l-2.978-.447v2.732c.994.163 1.965.325 2.977.492zM64.739 82.779v-2.78c-1.002-.17-1.978-.337-2.989-.507v2.732c.998.183 1.976.367 2.989.555zM64.743 17.223c-.934.173-1.847.336-2.757.518-.095.018-.247.14-.25.217-.016.835-.01 1.669-.01 2.556A7284.3 7284.3 0 0 1 64.743 20v-2.777zM49.62 80.506v-2.59l-3.033-.265v2.557c1.01.1 2.002.199 3.034.298zM46.576 76.998l3.02.257c.028-.08.045-.109.045-.137.004-.5.006-1.001.008-1.502.002-.918 0-.918-.878-1.001-.086-.007-.17-.028-.258-.034l-1.94-.135c.003.88.003 1.686.003 2.552zM16.024 26.28v2.548c1.015.056 2.007.106 3.01.163v-2.543l-3.01-.169zM16.023 76.938l3.013-.212v-2.535c-1.015.066-2.005.128-3.014.193v2.554zM16.002 32.767c0 .737-.006 1.513.01 2.29.001.069.145.19.224.192.923.013 1.841.008 2.79.008v-2.49h-3.024zM16.024 38.482h3.006v-2.528h-3.006v2.528zM19.04 71.006c-1.034.058-2.024.116-3.014.17v2.552c1.018-.064 2.007-.124 3.013-.185v-2.537zM19.04 42.339h-3.01v2.525h3.01V42.34zM19.043 55.156h-3.011v2.473h3.011v-2.473zM16.023 60.832h3.01v-2.488h-3.01v2.488zM34.337 23.632h-3.016v2.458h3.016v-2.458zM30.49 23.624h-3.02v2.477h3.02v-2.477zM27.477 41.8h3.007V39.34h-3.007V41.8zM27.471 60.66h3.02v-2.464h-3.02v2.463zM26.661 45.603H23.64v2.48h3.022v-2.48zM27.486 45.624v2.46h3.006v-2.46h-3.006zM19.83 44.894h2.997v-2.48H19.83v2.48zM26.656 51.926h-3.023v2.47h3.023v-2.47zM30.505 51.918h-3.017v2.458h3.017v-2.458zM22.834 55.113h-3.001v2.466h3.001v-2.466zM22.823 51.258v-2.49H19.84v2.49h2.983zM19.83 60.744h2.993v-2.455h-2.992v2.455zM19.83 76.681c1.013-.047 2.003-.093 2.991-.142v-2.524c-1.012.045-2.002.092-2.99.137v2.53zM26.665 67.681H23.65v2.449h3.015v-2.449zM19.829 29.066h2.983V26.57h-2.983v2.496zM23.637 63.836h3.019v-2.457h-3.02v2.457zM22.823 64.608h-2.989v2.47h2.99v-2.47zM31.306 76.374h3.015v-2.47h-3.015v2.47zM27.48 73.908v2.462h3.016v-2.462H27.48zM22.823 70.265v-2.47h-2.992v2.47h2.992zM23.644 33.01v2.476h3.017V33.01h-3.017zM19.825 32.221h2.992v-2.48h-2.992v2.48zM22.812 41.735V39.23h-2.968v2.505h2.968zM26.669 55.08h-3.034v2.446h3.034V55.08zM23.646 26.707v2.48h3.017v-2.48h-3.017zM19.846 61.432v2.492h2.975v-2.492h-2.975zM23.637 76.432h3.019v-2.449h-3.02v2.449zM26.669 77.131H23.65v2.464h3.019v-2.464zM23.637 73.286h3.015v-2.457h-3.015v2.457zM30.494 36.19h-3.019v2.47h3.019v-2.47zM26.652 38.636v-2.483h-3v2.483h3zM27.477 48.766v2.456h3.017v-2.456h-3.017zM31.315 77.05v2.464h3.006v-2.463h-3.006zM31.304 22.932h3.013v-2.43h-3.013v2.43zM26.652 44.926v-2.47h-3.013v2.47h3.013zM27.479 61.344V63.8h3.01v-2.456h-3.01z"/>
        <path fill="url(#c)" d="M49.498 3.86c0-1.03-.007-1.987.011-2.943.002-.096.148-.248.25-.274C50.657.418 51.562.22 52.523 0c0 1.033.003 2.044-.008 3.053 0 .069-.107.181-.182.196-.915.207-1.832.398-2.835.612zM52.524 75c-.978-.225-1.91-.431-2.837-.66-.08-.019-.178-.188-.18-.287-.014-.943-.007-1.884-.007-2.897.356.07.673.131.99.195.581.12 1.164.237 1.742.377.11.028.28.158.281.244.019.997.011 1.997.011 3.028z" transform="translate(16 12.5)"/>
        <path fill="#CADCE0" d="M64.743 16.514l-3.015.574v-2.002c0-1.086 0-1.088 1.035-1.307.65-.139 1.303-.268 1.98-.407v3.142zM61.727 82.916l3.016.568v3.144c-.962-.195-1.9-.38-2.834-.587-.075-.017-.172-.16-.174-.243-.011-.929-.007-1.859-.007-2.882zM57.98 17.72c0-.98-.004-1.907.005-2.833.002-.079.083-.21.144-.223.938-.18 1.877-.343 2.871-.52 0 .994.008 1.935-.013 2.877-.002.086-.17.223-.278.243-.879.16-1.768.299-2.73.456z"/>
        <path fill="url(#c)" d="M41.237 69.662v3.02c-1.005-.157-1.986-.313-3-.472v-2.981l3 .433zM30.587 6.634V3.739c.997-.109 1.995-.22 3.058-.334 0 .943.006 1.85-.008 2.756-.001.066-.116.18-.185.188-.945.105-1.892.193-2.865.285z" transform="translate(16 12.5)"/>
        <path fill="#CADCE0" d="M45.816 83.684c-1.04-.088-2.03-.17-3.041-.257v-2.872c.712.056 1.4.105 2.089.17.952.093.95.098.95 1.068.002.618.002 1.235.002 1.891zM45.792 16.312v2.895c-1.009.077-1.997.154-3.013.23v-2.865c.988-.084 1.976-.17 3.013-.26zM50.404 84.187v-2.933c1.011.122 2 .242 3.008.362v2.97c-1.01-.133-1.999-.266-3.008-.4zM53.412 15.41v2.972l-2.998.364v-2.933l2.998-.403zM38.96 16.805c1.021-.056 2.004-.112 3.016-.169v2.856c-.99.058-1.983.118-3.017.178v-2.865zM41.982 80.504v2.86c-.474-.023-.945-.045-1.414-.07-.448-.024-.896-.033-1.342-.086-.111-.013-.293-.161-.295-.253-.022-.85-.013-1.7-.013-2.61 1.035.052 2.025.103 3.064.16z"/>
        <path fill="url(#c)" d="M15.31 70.489v-2.802h3.016v2.802H15.31z" transform="translate(16 12.5)"/>
        <path fill="#CADCE0" d="M35.134 83.084V80.28h3.014v2.805h-3.014z"/>
        <path fill="url(#c)" d="M18.326 7.309h-3.005V4.515h3.005v2.794zM11.47 7.307V4.506h3.012v2.8H11.47z" transform="translate(16 12.5)"/>
        <path fill="#CADCE0" d="M68.511 20.011v2.847l-2.977.504v-2.788l2.977-.563zM65.498 76.634c1.037.175 2.003.336 2.996.505v2.84c-.596-.108-1.185-.21-1.772-.324-.395-.077-.95-.045-1.136-.294-.206-.274-.078-.812-.086-1.236-.008-.47-.002-.941-.002-1.49z"/>
        <path fill="url(#c)" d="M56.244 65.334v2.918l-2.945-.61v-2.855c.99.182 1.953.362 2.945.547z" transform="translate(16 12.5)"/>
        <path fill="#CADCE0" d="M69.306 22.719v-2.86c.968-.202 1.94-.407 2.935-.613v2.914c-.958.184-1.932.37-2.935.559z"/>
        <path fill="url(#c)" d="M56.239 3.092v2.912l-2.955.632c0-.927-.004-1.82.007-2.715.002-.068.107-.171.182-.19.913-.22 1.83-.425 2.766-.64z" transform="translate(16 12.5)"/>
        <path fill="#CADCE0" d="M61.744 23.94v-2.733l2.99-.495v2.78c-.978.144-1.958.292-2.99.447z"/>
        <path fill="url(#c)" d="M48.73 66.786c-1.011-.17-1.984-.329-2.978-.493V63.56l2.977.446v2.779z" transform="translate(16 12.5)"/>
        <path fill="#CADCE0" d="M64.739 82.779c-1.013-.19-1.993-.37-2.989-.557V79.49c1.009.17 1.988.338 2.989.506v2.783z"/>
        <path fill="url(#c)" d="M48.742 4.723V7.5l-3.014.514c0-.887-.006-1.723.01-2.556.003-.077.153-.199.25-.217.91-.184 1.823-.347 2.755-.518z" transform="translate(16 12.5)"/>
        <path fill="#CADCE0" d="M49.62 80.506c-1.03-.101-2.02-.197-3.033-.294v-2.558l3.034.267v2.585z"/>
        <path fill="url(#c)" d="M30.576 64.498v-2.554l1.938.135c.087.006.171.027.26.034.877.083.879.083.877 1.001 0 .501-.004 1.002-.008 1.502 0 .028-.017.055-.045.137-.986-.082-1.985-.167-3.022-.255zM.024 13.78l3.01.168v2.543c-1.005-.055-1.995-.107-3.01-.163v-2.549zM.022 64.438v-2.556c1.011-.063 2-.127 3.014-.193v2.535c-1.002.072-1.99.143-3.014.214z" transform="translate(16 12.5)"/>
        <path fill="#CADCE0" d="M16.002 32.767h3.024v2.49c-.945 0-1.867.006-2.79-.008-.079-.002-.223-.123-.225-.193-.015-.776-.01-1.552-.01-2.29z"/>
        <path fill="url(#c)" d="M.024 25.982v-2.528H3.03v2.528H.024z" transform="translate(16 12.5)"/>
        <path fill="#CADCE0" d="M19.04 71.006v2.537c-1.007.061-1.996.121-3.014.185v-2.552c.99-.054 1.978-.11 3.013-.17zM19.04 42.339v2.525h-3.01V42.34h3.01z"/>
        <path fill="url(#c)" d="M3.043 42.656v2.473H.032v-2.473h3.011z" transform="translate(16 12.5)"/>
        <path fill="#CADCE0" d="M16.023 60.832v-2.488h3.01v2.488h-3.01zM34.337 23.632v2.458h-3.016v-2.458h3.016zM30.49 23.624v2.477h-3.02v-2.477h3.02z"/>
        <path fill="url(#c)" d="M11.477 29.3V26.84h3.007V29.3h-3.007z" transform="translate(16 12.5)"/>
        <path fill="#CADCE0" d="M27.471 60.66v-2.464h3.02v2.463h-3.02zM26.661 45.603v2.48H23.64v-2.48h3.022zM27.486 45.624h3.006v2.46h-3.006v-2.46z"/>
        <path fill="url(#c)" d="M3.83 32.394v-2.48h2.997v2.48H3.83z" transform="translate(16 12.5)"/>
        <path fill="#CADCE0" d="M26.656 51.926v2.47h-3.023v-2.47h3.023zM30.505 51.918v2.458h-3.017v-2.458h3.017z"/>
        <path fill="#7C9198" d="M40.468 48.8v2.458H37.45V48.8h3.017zM57.262 67.777v3.229h-3.025v-3.23h3.025zM34.332 67.681v2.458h-3.017v-2.458h3.017zM72.239 36.71v3.86h-3.017v-3.86h3.017zM36.542 36.202v2.458h-3.017v-2.458h3.017z"/>
        <path fill="#CADCE0" d="M22.834 55.113v2.466h-3.001v-2.466h3.001zM22.823 51.258H19.84v-2.49h2.983v2.49z"/>
        <path fill="url(#c)" d="M3.83 48.244v-2.455h2.993v2.455H3.831zM3.83 64.181v-2.53c.99-.044 1.979-.09 2.991-.136v2.524c-.988.049-1.976.095-2.99.142z" transform="translate(16 12.5)"/>
        <path fill="#CADCE0" d="M26.665 67.681v2.449H23.65v-2.449h3.015z"/>
        <path fill="url(#c)" d="M3.829 16.566V14.07h2.983v2.496H3.829z" transform="translate(16 12.5)"/>
        <path fill="#CADCE0" d="M23.637 63.836v-2.457h3.019v2.457h-3.02z"/>
        <path fill="url(#c)" d="M6.823 52.108v2.47H3.834v-2.47h2.99z" transform="translate(16 12.5)"/>
        <path fill="#CADCE0" d="M31.306 76.374v-2.47h3.015v2.47h-3.015z"/>
        <path fill="url(#c)" d="M11.48 61.408h3.016v2.462H11.48v-2.462z" transform="translate(16 12.5)"/>
        <path fill="#CADCE0" d="M22.823 70.265h-2.992v-2.47h2.992v2.47zM23.644 33.01h3.017v2.476h-3.017V33.01zM19.825 32.221v-2.48h2.992v2.48h-2.992zM22.812 41.735h-2.968V39.23h2.968v2.505z"/>
        <path fill="url(#c)" d="M10.669 42.58v2.446H7.635V42.58h3.034z" transform="translate(16 12.5)"/>
        <path fill="#CADCE0" d="M23.646 26.707h3.017v2.48h-3.017v-2.48zM19.846 61.432h2.975v2.492h-2.975v-2.492zM23.637 76.432v-2.449h3.019v2.449h-3.02zM26.669 77.131v2.464H23.65v-2.464h3.019z"/>
        <path fill="url(#c)" d="M7.637 60.786v-2.457h3.015v2.457H7.637z" transform="translate(16 12.5)"/>
        <path fill="#CADCE0" d="M30.494 36.19v2.47h-3.019v-2.47h3.019z"/>
        <path fill="url(#c)" d="M10.652 26.136h-3v-2.483h3v2.483z" transform="translate(16 12.5)"/>
        <path fill="#CADCE0" d="M27.477 48.766h3.017v2.456h-3.017v-2.456z"/>
        <path fill="url(#c)" d="M15.315 64.55h3.006v2.464h-3.006v-2.463zM15.304 10.432v-2.43h3.013v2.43h-3.013z" transform="translate(16 12.5)"/>
        <path fill="#CADCE0" d="M26.652 44.926h-3.013v-2.47h3.013v2.47zM27.479 61.344h3.01V63.8h-3.01v-2.456z"/>
        <path fill="url(#d)" d="M59.884 48.91c-.188-1.898-.683-3.7-1.63-5.369-.294-.52-.601-.825-1.243-.763-.529.05-1.07-.035-1.607-.06l-2.094-.097c0-1.052-.017-2.055.01-3.057.007-.31-.098-.459-.37-.541-1.193-.359-2.38-.749-3.581-1.075-.692-.187-1.412-.272-2.138-.407v-1.005c0-1.16.002-1.155 1.093-1.541 1.896-.67 3.771-1.376 5.378-2.653a11.731 11.731 0 0 0 3.85-5.411c.69-1.97.75-4.018.603-6.08-.113-1.58-.467-3.108-1.2-4.52a6.69 6.69 0 0 0-2.449-2.647c-2.227-1.375-4.68-1.744-7.235-1.6-.747.043-1.495.094-2.252.141l-.04-.692c-.999.128-1.951.248-2.92.37V9.287l2.924-.443V5.456l-10.61 1.502v6.493l-6.64.304v-2.591l2.81-.162V7.346c-3.826.214-7.612.428-11.44.641v6.239h-7.628v3.195h2.966v2.469h-2.959v3.146H15.3v10.106h2.916v2.445h-2.907v3.844h2.92v2.447h-2.957v10.088h-3.788v6.356h2.946v2.443h4.71v6.268c2.586.116 5.115.23 7.71.345v-2.413c1.012.09 1.961.172 2.959.26v-4.014c1.552.12 3.05.236 4.59.357v6.459l10.616 1.502v-6.775c.636.045 1.2.087 1.763.128 1.948.139 3.879.112 5.786-.407 3.517-.956 5.908-3.08 6.87-6.727.594-2.241.677-4.53.45-6.839zm-6.542-31.264c.937-.141 1.89-.282 2.897-.432v2.948l-2.897.362v-2.878zm-.011 7.363l2.895-.276v2.953c-.95.064-1.907.13-2.895.195V25.01zm-30.334-7.857l2.985-.146v2.505c-1 .045-1.976.092-2.985.137v-2.495zm1.813 9.707v2.402h-2.957V26.86h2.957zm-5.61-9.592h2.942v2.432H19.2v-2.432zm-1.624 8.869v-2.423h2.97v2.423h-2.97zm.756 31.488h-2.966v-2.43h2.966v2.43zm3.06-6.337h-2.98v-2.408h2.98v2.408zm.002-3.154h-2.978v-2.406h2.978v2.406zm.095-11.857h2.95v2.443h-2.95v-2.443zm4.504 27.579h-2.99v-2.406h2.99v2.406zm2.586-42.29c.253-.018 8.28-.423 9.247-.449 6.26-.161 6.092 2.575 6.137 4.566.083 3.654-1.416 6.941-8.944 7.532-.255.019-6.352.28-6.44.28v-11.93zm5.133 36.425l-2.953-.139v-2.41h2.953v2.549zm7.617.551c-.732-.056-2.7-.213-2.952-.232v-2.55c.75.054 1.48.105 2.215.155.245.02.491.034.737.053v2.574zm4.12-7.946c-.183.696-.695 3.304-6.738 3.296-1.48-.002-9.92-.354-10.136-.354v-11.93c.188 0 5.552.115 6.442.164 9.419.508 9.645 2.355 10.602 5.792.275.986.092 2.034-.17 3.032zm10.788 3.424l-2.893-.343v-2.882c.95.094 1.907.185 2.893.281v2.944z" transform="translate(16 12.5)"/>
    </g>
</svg>
