<?xml version="1.0" encoding="UTF-8"?>
<svg width="161px" height="33px" viewBox="0 0 161 33" version="1.1" xmlns="http://www.w3.org/2000/svg" xmlns:xlink="http://www.w3.org/1999/xlink">
    <!-- Generator: Sketch 47.1 (45422) - http://www.bohemiancoding.com/sketch -->
    <title>Logo_EPS</title>
    <desc>Created with Sketch.</desc>
    <defs>
        <linearGradient x1="0%" y1="0%" x2="100%" y2="85.154264%" id="linearGradient-1">
            <stop stop-color="#6662DA" offset="0%"></stop>
            <stop stop-color="#67AFE8" offset="100%"></stop>
        </linearGradient>
        <path d="M25.3718092,31.4838798 L5.66989693,31.4838798 C2.53830035,31.4838798 0,28.9455794 0,25.8139828 L0,6.11207053 C0,2.98117359 2.53830035,0.442873242 5.66989693,0.442873242 L25.3718092,0.442873242 C28.5027062,0.442873242 31.0410065,2.98117359 31.0410065,6.11207053 L31.0410065,25.8139828 C31.0410065,28.9455794 28.5027062,31.4838798 25.3718092,31.4838798 Z M0,0.442873242 L31.0410065,0.442873242 L31.0410065,31.4838798 L0,31.4838798 L0,0.442873242 Z" id="path-2"></path>
    </defs>
    <g id="Symbols" stroke="none" stroke-width="1" fill="none" fill-rule="evenodd">
        <g id="Logo_EPS">
            <g>
                <rect id="Rectangle-10" fill="url(#linearGradient-1)" x="0" y="0" width="33" height="33" rx="4"></rect>
                <path d="M38.295804,8.98270072 C38.295804,8.24597793 39.0094386,7.64428601 39.8797929,7.64428601 L49.0269095,7.64428601 C49.7629326,7.64428601 50.3660238,8.33623172 50.3660238,9.16110937 C50.3660238,9.9873863 49.7629326,10.6779327 49.0269095,10.6779327 L41.4630823,10.6779327 L41.4630823,14.4706908 L47.5100861,14.4706908 C48.2461093,14.4706908 48.8478012,15.1619369 48.8478012,15.9882138 C48.8478012,16.8130914 48.2461093,17.5050372 47.5100861,17.5050372 L41.4630823,17.5050372 L41.4630823,23.2162129 C41.4630823,23.9522361 40.7494477,24.5553273 39.8797929,24.5553273 C39.0094386,24.5553273 38.295804,23.9522361 38.295804,23.2162129 L38.295804,8.98270072" id="Fill-1" fill="#4A4A4A"></path>
                <path d="M59.2633683,11.2138583 C59.955314,11.3691788 60.4457628,11.97227 60.4457628,12.6866043 C60.4457628,13.5114819 59.7985942,14.202728 58.9296391,14.202728 C58.8617739,14.202728 58.5049566,14.1586506 58.0368962,14.1145731 C57.1882308,14.069796 56.4745961,14.3818363 55.8945931,15.0513935 C55.3138904,15.7209506 55.0242388,16.5234397 55.0242388,17.4609597 L55.0242388,23.2162129 C55.0242388,23.9522361 54.3106041,24.5553273 53.4409494,24.5553273 C52.5705951,24.5553273 51.8569604,23.9522361 51.8569604,23.2162129 L51.8569604,12.5298845 C51.8569604,11.8379388 52.525818,11.2810239 53.3290067,11.2810239 C54.1314959,11.2810239 54.801053,11.8379388 54.801053,12.5298845 L54.801053,13.2435191 L54.8458301,13.2435191 C55.6937959,11.7938614 56.8097246,11.0795271 58.1922167,11.0795271 C58.5273451,11.0795271 58.8834628,11.1243042 59.2633683,11.2138583" id="Fill-2" fill="#4A4A4A"></path>
                <path d="M70.370881,15.2298021 C69.6572464,14.4930793 68.7652032,14.1145731 67.7164402,14.1145731 C66.6676771,14.1145731 65.7973228,14.4930793 65.0612996,15.2298021 C64.3252765,15.9658253 63.9677595,16.8578685 63.9677595,17.9066315 C63.9677595,18.9553945 64.3252765,19.8698263 65.0612996,20.6058495 C65.7973228,21.3425723 66.6676771,21.7217781 67.7164402,21.7217781 C68.7652032,21.7217781 69.6572464,21.3425723 70.370881,20.6058495 C71.1069042,19.8698263 71.4644211,18.9553945 71.4644211,17.9066315 C71.4644211,16.8578685 71.1069042,15.9658253 70.370881,15.2298021 Z M71.4203437,22.4801898 C70.2820265,23.9970132 68.8540577,24.7568241 67.1364371,24.7568241 C65.3292624,24.7568241 63.7900505,24.1089558 62.5397907,22.79223 C61.2909301,21.4769035 60.6654504,19.8474378 60.6654504,17.9066315 C60.6654504,15.9658253 61.2909301,14.3594477 62.5397907,13.0427219 C63.7900505,11.7273954 65.3292624,11.0795271 67.1364371,11.0795271 C68.8764462,11.0795271 70.3044151,11.8379388 71.4203437,13.3337729 L71.4644211,13.3337729 L71.4644211,12.6194387 C71.4644211,11.8834155 72.1787554,11.2810239 73.0491097,11.2810239 C73.9180648,11.2810239 74.6323991,11.8834155 74.6323991,12.6194387 L74.6323991,23.2162129 C74.6323991,23.9522361 73.9180648,24.5553273 73.0491097,24.5553273 C72.1787554,24.5553273 71.4644211,23.9522361 71.4644211,23.2162129 L71.4644211,22.4801898 L71.4203437,22.4801898 Z" id="Fill-3" fill="#4A4A4A"></path>
                <path d="M92.6334822,16.3891085 C92.6334822,15.1178594 91.6294963,14.1145731 90.3575476,14.1145731 C89.1079873,14.1145731 88.104701,15.1178594 88.104701,16.3891085 L88.104701,23.2162129 C88.104701,23.9522361 87.3903668,24.5553273 86.5200124,24.5553273 C85.6496581,24.5553273 84.9353238,23.9522361 84.9353238,23.2162129 L84.9353238,16.3891085 C84.9353238,15.1178594 83.9761149,14.1145731 82.7048658,14.1145731 C81.4560053,14.1145731 80.4744079,15.1178594 80.4744079,16.3891085 L80.4744079,23.2162129 C80.4744079,23.9522361 79.7607733,24.5553273 78.8680304,24.5553273 C77.9969764,24.5553273 77.3057303,23.9522361 77.3057303,23.2162129 L77.3057303,12.5298845 C77.3057303,11.8155503 77.9969764,11.2810239 78.8232533,11.2810239 C79.6481309,11.2810239 80.3624652,11.8155503 80.3624652,12.5298845 L80.3624652,13.3337729 L80.4065426,13.3337729 C81.3657515,11.8379388 82.5040687,11.0795271 83.8655715,11.0795271 C85.2928408,11.0795271 86.475935,11.8155503 87.4127553,13.3113844 C88.4832072,11.8155503 89.7775445,11.0795271 91.2719793,11.0795271 C94.1055285,11.0795271 95.8007605,13.1770531 95.8007605,16.3891085 L95.8007605,23.2162129 C95.8007605,23.9522361 95.0871259,24.5553273 94.2167716,24.5553273 C93.3471168,24.5553273 92.6334822,23.9522361 92.6334822,23.2162129 L92.6334822,16.3891085" id="Fill-4" fill="#4A4A4A"></path>
                <path d="M108.601406,16.6122942 C108.06618,15.0290049 106.682989,14.0474075 105.054223,14.0474075 C103.447145,14.0474075 102.065353,15.073782 101.528728,16.6122942 L108.601406,16.6122942 Z M110.409281,19.3569889 L101.528728,19.3569889 C102.065353,20.8962008 103.537399,21.9232749 105.166165,21.9232749 C106.325472,21.9232749 107.664586,21.4769035 108.444687,20.7849578 C108.891058,20.2721204 109.739724,20.2945089 110.296638,20.8290352 C110.854253,21.2977952 111.010973,22.1905381 110.58699,22.6592981 C109.248575,23.9970132 107.195826,24.7568241 105.166165,24.7568241 C103.202271,24.7568241 101.506339,24.1089558 100.100759,22.79223 C98.6951786,21.4769035 98.0039325,19.8474378 98.0039325,17.9066315 C98.0039325,15.9658253 98.6951786,14.3594477 100.056681,13.0427219 C101.417485,11.7273954 103.091028,11.0795271 105.054223,11.0795271 C106.97264,11.0795271 108.601406,11.7490843 109.962909,13.0651105 C111.323013,14.3818363 111.99257,16.0106023 111.99257,17.9066315 C111.99257,18.6433543 111.278236,19.3569889 110.409281,19.3569889 L110.409281,19.3569889 Z" id="Fill-5" fill="#4A4A4A"></path>
                <path d="M114.21953,8.80499171 C114.21953,8.06756928 114.933164,7.46587736 115.803519,7.46587736 C116.674573,7.46587736 117.388207,8.06756928 117.388207,8.80499171 L117.388207,21.3425723 L124.572129,21.3425723 C125.308152,21.3425723 125.909844,22.0338183 125.909844,22.8600953 C125.909844,23.6849729 125.308152,24.3769186 124.572129,24.3769186 L115.803519,24.3769186 C114.933164,24.3769186 114.21953,23.7738274 114.21953,23.0378043 L114.21953,8.80499171" id="Fill-6" fill="#415DD4"></path>
                <path d="M127.915018,12.6194387 C127.915018,11.8834155 128.628652,11.2810239 129.499007,11.2810239 C130.368661,11.2810239 131.082296,11.8834155 131.082296,12.6194387 L131.082296,23.2162129 C131.082296,23.9522361 130.368661,24.5553273 129.499007,24.5553273 C128.628652,24.5553273 127.915018,23.9522361 127.915018,23.2162129 L127.915018,12.6194387 Z M128.248747,7.68906308 C128.940692,6.99711737 130.056621,6.99711737 130.748567,7.68906308 C131.439813,8.38030915 131.439813,9.49553814 130.748567,10.1867842 C130.056621,10.8787299 128.940692,10.8787299 128.248747,10.1867842 C127.557501,9.49553814 127.557501,8.38030915 128.248747,7.68906308 L128.248747,7.68906308 Z" id="Fill-7" fill="#415DD4"></path>
                <g id="Group-11" transform="translate(133.232295, 6.996418)" fill="#415DD4">
                    <path d="M9.29404131,9.97339347 C9.29404131,9.19259325 9.02677815,8.52373572 8.46776437,7.96472194 C7.93253842,7.40780709 7.28536978,7.11815539 6.5052692,7.11815539 C5.72446898,7.11815539 5.05491181,7.40780709 4.49729731,7.96472194 C3.96137172,8.52373572 3.69340892,9.19259325 3.69340892,9.97339347 L3.69340892,16.2197952 C3.69340892,16.9558184 2.97977431,17.5589096 2.11011959,17.5589096 C1.23976522,17.5589096 0.526130613,16.9558184 0.526130613,16.2197952 L0.526130613,5.53346678 C0.526130613,4.81913253 1.21807633,4.28460622 2.04295398,4.28460622 C2.86853127,4.28460622 3.58286552,4.81913253 3.58286552,5.53346678 L3.58286552,6.51506419 L3.62694295,6.51506419 C4.69739486,4.88699778 6.03650921,4.08310938 7.64288672,4.08310938 C10.6100675,4.08310938 12.4620193,6.15824688 12.4620193,9.57179909 L12.4620193,16.2197952 C12.4620193,16.9558184 11.7700735,17.5589096 10.8997192,17.5589096 C10.0076759,17.5589096 9.29404131,16.9558184 9.29404131,16.2197952 L9.29404131,9.97339347" id="Fill-8"></path>
                    <path d="M22.764944,10.9102138 L26.5800906,15.1717318 C27.0488506,15.6845693 26.915219,16.5556233 26.2680504,17.1573152 C25.6208817,17.6925411 24.7736155,17.71423 24.3055552,17.1573152 L19.6641317,12.0709195 C19.0624397,11.3789738 19.0624397,10.4421535 19.6641317,9.75020774 L24.2607781,4.68620059 C24.7295381,4.12788646 25.5768043,4.14957535 26.2239729,4.68620059 C26.8711416,5.28789252 27.0040735,6.15824688 26.5360132,6.67178394 L22.764944,10.9102138 Z M15.1353505,1.80857398 C15.1353505,1.07115155 15.8489851,0.469459629 16.7193394,0.469459629 C17.5903934,0.469459629 18.3040281,1.07115155 18.3040281,1.80857398 L18.3040281,16.2197952 C18.3040281,16.9558184 17.5903934,17.5589096 16.7193394,17.5589096 C15.8489851,17.5589096 15.1353505,16.9558184 15.1353505,16.2197952 L15.1353505,1.80857398 L15.1353505,1.80857398 Z" id="Fill-10"></path>
                </g>
                <g id="Group-14" transform="translate(1.000000, 0.000000)">
                    <mask id="mask-3" fill="white">
                        <use xlink:href="#path-2"></use>
                    </mask>
                    <g id="Clip-13"></g>
                    <path d="M25.3718092,31.4838798 L5.66989693,31.4838798 C2.53830035,31.4838798 0,28.9455794 0,25.8139828 L0,6.11207053 C0,2.98117359 2.53830035,0.442873242 5.66989693,0.442873242 L25.3718092,0.442873242 C28.5027062,0.442873242 31.0410065,2.98117359 31.0410065,6.11207053 L31.0410065,25.8139828 C31.0410065,28.9455794 28.5027062,31.4838798 25.3718092,31.4838798" id="Fill-12" mask="url(#mask-3)"></path>
                </g>
                <path d="M24.0706875,23.5135607 L6.02902506,23.5135607 L6.02902506,24.62809 C6.02902506,25.6369735 6.84690629,26.4548547 7.85578973,26.4548547 L25.1852168,26.4548547 C26.1941002,26.4548547 27.0126811,25.6369735 27.0126811,24.62809 L27.0126811,9.88383932 L24.0706875,9.88383932 L24.0706875,23.5135607" id="Fill-15" fill="#FFFFFE"></path>
                <path d="M7.85578973,5.47119866 C6.84690629,5.47119866 6.02902506,6.28977954 6.02902506,7.29866297 L6.02902506,22.0429137 L8.97031907,22.0429137 L8.97031907,16.5514254 L16.5208531,16.5514254 L16.5208531,13.6101314 L8.97031907,13.6101314 L8.97031907,8.41319232 L27.0126811,8.41319232 L27.0126811,7.29866297 C27.0126811,6.28977954 26.1941002,5.47119866 25.1852168,5.47119866 L7.85578973,5.47119866" id="Fill-16" fill="#FFFFFE"></path>
            </g>
        </g>
    </g>
</svg>