<svg xmlns="http://www.w3.org/2000/svg" width="154" height="32" viewBox="0 0 154 32">
    <g fill="#FFF" fill-rule="evenodd">
        <path d="M2 0h28a2 2 0 0 1 2 2v28a2 2 0 0 1-2 2H2a2 2 0 0 1-2-2V2a2 2 0 0 1 2-2zm22.895 9.304c0-.69-.668-1.254-1.483-1.254-.815 0-1.484.563-1.484 1.254v11.738h-6.726c-.689 0-1.252.647-1.252 1.42 0 .773.563 1.421 1.252 1.421h8.21c.815 0 1.483-.565 1.483-1.254V9.304zM7 9.47v13.326c0 .69.668 1.254 1.483 1.254.814 0 1.482-.565 1.482-1.254V17.45h5.662c.689 0 1.252-.648 1.252-1.42 0-.774-.563-1.42-1.252-1.42H9.965v-3.552h7.082c.69 0 1.254-.646 1.254-1.42 0-.772-.565-1.42-1.254-1.42H8.483C7.668 8.217 7 8.78 7 9.47zM39.481 8h8.552c.689 0 1.252.647 1.252 1.418 0 .773-.563 1.418-1.252 1.418h-7.072v3.547h5.654c.688 0 1.251.646 1.251 1.418 0 .772-.563 1.419-1.25 1.419H40.96v5.34c0 .688-.667 1.252-1.48 1.252-.814 0-1.481-.564-1.481-1.252V9.25C38 8.563 38.667 8 39.481 8zm18.123 3.338c.647.145 1.106.709 1.106 1.377 0 .77-.605 1.417-1.418 1.417-.063 0-.397-.041-.834-.082-.794-.042-1.461.25-2.003.876-.543.626-.814 1.376-.814 2.252v5.382c0 .688-.667 1.252-1.48 1.252-.814 0-1.481-.564-1.481-1.252v-9.992c0-.647.625-1.168 1.376-1.168.75 0 1.376.521 1.376 1.168v.667h.042c.793-1.355 1.836-2.023 3.129-2.023.313 0 .646.042 1.001.126zM69.012 21.87h-.041C67.907 23.29 66.571 24 64.966 24c-1.69 0-3.13-.606-4.298-1.837-1.168-1.23-1.753-2.753-1.753-4.568 0-1.814.585-3.316 1.753-4.548 1.169-1.23 2.608-1.835 4.298-1.835 1.627 0 2.962.709 4.005 2.108h.041v-.668c0-.688.668-1.252 1.482-1.252.812 0 1.48.564 1.48 1.252v9.908c0 .688-.668 1.252-1.48 1.252-.814 0-1.482-.564-1.482-1.252v-.689zm-1.022-6.779c-.667-.688-1.502-1.042-2.482-1.042-.98 0-1.794.354-2.483 1.042-.688.689-1.022 1.523-1.022 2.503 0 .98.334 1.836 1.022 2.524.689.689 1.502 1.043 2.483 1.043.98 0 1.815-.354 2.482-1.043.688-.688 1.022-1.543 1.022-2.524 0-.98-.334-1.814-1.022-2.503zm20.815 1.084a2.11 2.11 0 0 0-2.128-2.126 2.105 2.105 0 0 0-2.106 2.126v6.384c0 .688-.668 1.252-1.482 1.252s-1.482-.564-1.482-1.252v-6.384c0-1.188-.897-2.126-2.085-2.126-1.168 0-2.086.938-2.086 2.126v6.384c0 .688-.667 1.252-1.501 1.252-.815 0-1.461-.564-1.461-1.252v-9.992c0-.668.646-1.168 1.419-1.168.77 0 1.439.5 1.439 1.168v.752h.041c.897-1.399 1.961-2.108 3.234-2.108 1.335 0 2.44.688 3.317 2.087 1-1.399 2.21-2.087 3.608-2.087 2.65 0 4.234 1.961 4.234 4.964v6.384c0 .688-.667 1.252-1.48 1.252-.814 0-1.481-.564-1.481-1.252v-6.384zm16.62 2.775h-8.303a3.603 3.603 0 0 0 3.4 2.4c1.085 0 2.337-.418 3.066-1.065.418-.48 1.211-.458 1.732.042.521.438.668 1.273.271 1.71-1.251 1.252-3.17 1.962-5.068 1.962-1.836 0-3.422-.606-4.736-1.837-1.314-1.23-1.96-2.753-1.96-4.568 0-1.814.646-3.316 1.919-4.548 1.272-1.23 2.837-1.835 4.672-1.835 1.794 0 3.317.626 4.59 1.856 1.271 1.232 1.898 2.754 1.898 4.527 0 .689-.668 1.356-1.48 1.356zm-1.69-2.566c-.5-1.48-1.794-2.398-3.317-2.398-1.502 0-2.794.96-3.296 2.398h6.613zM109.906 9.504c0-.678.656-1.232 1.457-1.232.8 0 1.457.554 1.457 1.232v11.533h6.609c.677 0 1.23.636 1.23 1.396 0 .759-.553 1.396-1.23 1.396h-8.066c-.801 0-1.457-.555-1.457-1.232V9.504zm12.598 3.509c0-.677.656-1.231 1.457-1.231.8 0 1.457.554 1.457 1.23v9.749c0 .677-.657 1.232-1.457 1.232s-1.457-.555-1.457-1.232v-9.748zm.307-4.536a1.623 1.623 0 0 1 2.3 0 1.622 1.622 0 0 1 0 2.298 1.623 1.623 0 0 1-2.3 0 1.622 1.622 0 0 1 0-2.298zm13.134 8.538a2.51 2.51 0 0 0-.76-1.848c-.493-.512-1.088-.779-1.805-.779-.719 0-1.335.267-1.848.779a2.575 2.575 0 0 0-.74 1.848v5.746c0 .677-.656 1.232-1.456 1.232-.8 0-1.457-.555-1.457-1.232v-9.83c0-.658.637-1.15 1.396-1.15.76 0 1.416.492 1.416 1.15v.902h.04c.985-1.497 2.217-2.237 3.695-2.237 2.73 0 4.433 1.91 4.433 5.05v6.115c0 .677-.636 1.232-1.437 1.232-.82 0-1.477-.555-1.477-1.232v-5.746zm12.392.862l3.51 3.92c.43.471.308 1.273-.288 1.826-.595.493-1.374.513-1.805 0l-4.27-4.679c-.553-.636-.553-1.498 0-2.135l4.229-4.658c.431-.514 1.21-.494 1.806 0 .595.554.717 1.354.287 1.827l-3.47 3.899zm-7.019-8.373c0-.678.657-1.232 1.457-1.232.802 0 1.458.554 1.458 1.232V22.76c0 .677-.656 1.232-1.458 1.232-.8 0-1.457-.555-1.457-1.232V9.504z"/>
    </g>
</svg>
